<?xml version="1.0" encoding="UTF-8" standalone="no"?>
<!-- Created with Inkscape (http://www.inkscape.org/) -->

<svg
   xmlns:dc="http://purl.org/dc/elements/1.1/"
   xmlns:cc="http://creativecommons.org/ns#"
   xmlns:rdf="http://www.w3.org/1999/02/22-rdf-syntax-ns#"
   xmlns:svg="http://www.w3.org/2000/svg"
   xmlns="http://www.w3.org/2000/svg"
   xmlns:sodipodi="http://sodipodi.sourceforge.net/DTD/sodipodi-0.dtd"
   xmlns:inkscape="http://www.inkscape.org/namespaces/inkscape"
   width="210mm"
   height="297mm"
   viewBox="0 0 744.09448819 1052.3622047"
   id="svg2"
   version="1.1"
   inkscape:version="0.91 r13725"
   sodipodi:docname="favicon.svg">
  <defs
     id="defs4">
    <clipPath
       clipPathUnits="userSpaceOnUse"
       id="clipPath4163">
      <rect
         style="opacity:1;fill:#b86d00;fill-opacity:1;stroke:none;stroke-width:1;stroke-linecap:round;stroke-linejoin:miter;stroke-miterlimit:4;stroke-dasharray:none;stroke-dashoffset:0;stroke-opacity:1"
         id="rect4165"
         width="208.09143"
         height="81.822357"
         x="41.416256"
         y="856.39264" />
    </clipPath>
  </defs>
  <sodipodi:namedview
     id="base"
     pagecolor="#ffffff"
     bordercolor="#666666"
     borderopacity="1.0"
     inkscape:pageopacity="0.0"
     inkscape:pageshadow="2"
     inkscape:zoom="3.959798"
     inkscape:cx="85.577004"
     inkscape:cy="79.088746"
     inkscape:document-units="px"
     inkscape:current-layer="layer1"
     showgrid="false"
     inkscape:window-width="1920"
     inkscape:window-height="1027"
     inkscape:window-x="-8"
     inkscape:window-y="-8"
     inkscape:window-maximized="1" />
  <metadata
     id="metadata7">
    <rdf:RDF>
      <cc:Work
         rdf:about="">
        <dc:format>image/svg+xml</dc:format>
        <dc:type
           rdf:resource="http://purl.org/dc/dcmitype/StillImage" />
        <dc:title></dc:title>
      </cc:Work>
    </rdf:RDF>
  </metadata>
  <g
     inkscape:label="Layer 1"
     inkscape:groupmode="layer"
     id="layer1">
    <path
       style="fill:#b86d00;fill-opacity:1;fill-rule:evenodd;stroke:none;stroke-width:1px;stroke-linecap:butt;stroke-linejoin:miter;stroke-opacity:1"
       d="m 2.877681,1024.0779 c 0,0 1.0087819,28.2843 39.342476,28.2843 l 75.658603,0 c 0,0 35.66401,-0.4797 35.66401,-27.7539 z"
       id="path4140"
       inkscape:connector-curvature="0"
       sodipodi:nodetypes="csccc" />
    <ellipse
       style="opacity:1;fill:#b86d00;fill-opacity:1;stroke:none;stroke-width:1;stroke-linecap:round;stroke-linejoin:miter;stroke-miterlimit:4;stroke-dasharray:none;stroke-dashoffset:0;stroke-opacity:1"
       id="path4157"
       cx="139.90611"
       cy="856.39258"
       rx="76.266518"
       ry="78.791901"
       clip-path="url(#clipPath4163)"
       transform="matrix(-0.95638125,0.28783134,-0.28744066,-0.95768112,456.34073,1764.3462)" />
    <ellipse
       style="opacity:1;fill:#ffffff;fill-opacity:1;stroke:none;stroke-width:1;stroke-linecap:round;stroke-linejoin:miter;stroke-miterlimit:4;stroke-dasharray:none;stroke-dashoffset:0;stroke-opacity:1"
       id="path4167"
       cx="34.149914"
       cy="955.89264"
       rx="24.210754"
       ry="24.748737" />
    <ellipse
       style="opacity:1;fill:#ffffff;fill-opacity:1;stroke:none;stroke-width:1;stroke-linecap:round;stroke-linejoin:miter;stroke-miterlimit:4;stroke-dasharray:none;stroke-dashoffset:0;stroke-opacity:1"
       id="path4167-0"
       cx="106.78217"
       cy="935.18451"
       rx="24.715145"
       ry="25.253815" />
    <ellipse
       style="opacity:1;fill:#000000;fill-opacity:1;stroke:none;stroke-width:1;stroke-linecap:round;stroke-linejoin:miter;stroke-miterlimit:4;stroke-dasharray:none;stroke-dashoffset:0;stroke-opacity:1"
       id="path4184"
       cx="20.026962"
       cy="955.38757"
       rx="9.0790329"
       ry="9.0913725" />
    <ellipse
       style="opacity:1;fill:#000000;fill-opacity:1;stroke:none;stroke-width:1;stroke-linecap:round;stroke-linejoin:miter;stroke-miterlimit:4;stroke-dasharray:none;stroke-dashoffset:0;stroke-opacity:1"
       id="path4186"
       cx="116.36559"
       cy="943.26569"
       rx="10.592205"
       ry="11.111678" />
    <path
       style="opacity:1;fill:#ff0c0c;fill-opacity:1;stroke:none;stroke-width:1;stroke-linecap:round;stroke-linejoin:miter;stroke-miterlimit:4;stroke-dasharray:none;stroke-dashoffset:0;stroke-opacity:1"
       d="m 134.43151,993.70254 c -3.91756,-0.0949 -5.67364,5.24721 -3.5215,9.96886 3.19918,2.9447 8.50136,11.2685 0.83569,13.289 -6.19692,-0.2334 -11.54663,-4.2175 -16.89305,-7.0332 -4.81169,-3.6533 -12.07467,-6.0732 -14.5759,1.6171 -5.332991,8.4054 -16.03161,1.5475 -20.944183,-3.8261 -7.120652,-8.50336 -14.337943,0.8167 -19.60032,5.8496 -8.170485,4.5105 -13.471052,-10.7315 -21.734128,-5.293 -7.977368,8.3329 -20.601757,9.4479 -31.1724749,5.9317 l -6.41120816,1.9531 c 0.83854426,1.9965 1.57946326,3.248 2.92793946,5.1685 l 151.7569046,0.2308 c 4.09996,-5.1498 4.48589,-7.1335 4.60256,-12.7821 0.0393,-3.1136 -0.54525,-6.2285 -1.74372,-9.29106 -2.7223,0.82386 -6.47736,0.3508 -9.95717,-0.74023 -8.96367,-3.75807 -9.9e-4,1e-5 -9.35642,-2.75586 -1.45976,-1.57631 -2.90718,-2.25549 -4.21302,-2.28711 z"
       id="path4219"
       inkscape:connector-curvature="0"
       sodipodi:nodetypes="scccccccccccccccs" />
    <path
       style="fill:#17ff0c;fill-opacity:1;fill-rule:evenodd;stroke:none;stroke-width:1px;stroke-linecap:butt;stroke-linejoin:miter;stroke-opacity:1"
       d="m 3.5909968,1009.8132 c 11.2921702,5.0242 24.3854672,3.7884 33.1942902,-5.7579 8.161922,-5.58961 14.097223,9.5535 22.183602,4.8935 5.169174,-5.1288 13.282996,-15.29545 20.558418,-6.9245 5.01031,5.2824 14.049255,14.0854 19.227177,5.5834 2.003096,-8.44935 7.171026,-8.30587 12.048916,-4.7417 0,0 10.86183,9.415 17.06198,9.5344 7.98398,-0.3754 -1.96161,-7.7233 -2.35616,-12.1177 -1.55788,-8.02739 5.01368,-12.98726 11.32401,-8.93336 9.40406,2.58334 0.37297,-1.00924 9.40406,2.58334 7.06297,2.07262 15.21642,1.63216 13.5413,-6.80552 -0.79325,-7.71455 0.9166,-8.03468 -3.0797,-14.43653 -6.61755,-3.80286 -7.94174,-2.56529 -16.57161,-4.22253 -57.323706,18.22678 -102.808882,31.6605 -136.5362832,41.3451 z"
       id="path4205"
       inkscape:connector-curvature="0"
       sodipodi:nodetypes="cccccccccccccc"
       clip-path="none" />
  </g>
</svg>
